<?xml version="1.0" standalone="no"?>
<!DOCTYPE svg PUBLIC "-//W3C//DTD SVG 20010904//EN"
 "http://www.w3.org/TR/2001/REC-SVG-20010904/DTD/svg10.dtd">
<svg version="1.0" xmlns="http://www.w3.org/2000/svg"
 width="800.000000pt" height="600.000000pt" viewBox="0 0 800.000000 600.000000"
 preserveAspectRatio="xMidYMid meet">
<metadata>
Created by potrace 1.15, written by Peter Selinger 2001-2017
</metadata>
<g transform="translate(0.000000,600.000000) scale(0.100000,-0.100000)"
fill="#000000" stroke="none">
<path d="M3163 4921 c-31 -14 -75 -73 -90 -123 -7 -24 -16 -123 -19 -220 -6
-144 -10 -180 -23 -192 -12 -10 -64 -15 -197 -19 -215 -7 -271 -22 -328 -88
-56 -66 -67 -172 -86 -804 -6 -203 -15 -493 -20 -643 -6 -150 -10 -342 -10
-427 0 -148 -21 -384 -40 -455 -27 -98 4 -294 50 -317 19 -10 143 -13 520 -13
272 0 612 -4 755 -10 143 -5 564 -11 935 -12 632 -3 678 -2 715 15 77 35 110
81 120 168 3 30 13 106 20 169 8 63 20 153 25 200 6 47 15 263 20 480 8 370
21 789 36 1185 4 111 12 184 21 210 51 137 51 136 41 178 -11 52 -40 83 -98
111 -40 18 -70 21 -263 26 -272 6 -264 1 -233 162 8 40 24 97 35 126 49 124
47 193 -8 254 -34 38 -109 50 -158 25 -94 -49 -179 -232 -198 -427 -8 -78 -21
-116 -43 -125 -10 -4 -114 -6 -232 -5 -238 1 -250 5 -250 64 0 17 7 90 17 162
14 111 14 138 3 178 -28 100 -115 144 -203 101 -71 -34 -104 -117 -132 -328
-8 -65 -20 -127 -25 -138 -16 -29 -49 -32 -227 -26 -228 8 -213 -7 -213 212 0
206 -9 259 -54 311 -29 33 -38 37 -87 40 -29 2 -64 0 -76 -5z m-129 -903 c10
-16 15 -67 18 -174 4 -135 8 -157 29 -200 43 -87 132 -119 206 -74 68 41 93
122 93 312 0 164 -6 158 180 157 147 0 224 -9 243 -28 8 -7 12 -48 13 -109 2
-128 16 -178 65 -224 36 -35 45 -38 96 -38 52 0 59 3 94 40 45 47 58 86 66
203 4 65 11 95 25 113 l19 24 223 0 c278 0 261 11 269 -168 5 -98 11 -133 28
-168 61 -126 205 -127 268 -1 19 39 24 68 29 172 6 152 9 155 118 155 58 0 74
-4 89 -20 20 -22 20 -18 -5 -815 -5 -165 -12 -421 -15 -570 -5 -265 -18 -476
-36 -585 -6 -40 -16 -61 -36 -79 l-27 -24 -656 7 c-360 4 -779 11 -930 16
-151 6 -388 10 -526 10 -314 0 -294 -11 -275 158 7 64 17 290 22 502 8 359 18
713 35 1194 9 249 1 236 154 236 103 0 110 -1 124 -22z"/>
</g>
</svg>
