<?xml version="1.0" encoding="UTF-8" standalone="no"?>
<svg
   xmlns:dc="http://purl.org/dc/elements/1.1/"
   xmlns:cc="http://creativecommons.org/ns#"
   xmlns:rdf="http://www.w3.org/1999/02/22-rdf-syntax-ns#"
   xmlns:svg="http://www.w3.org/2000/svg"
   xmlns="http://www.w3.org/2000/svg"
   xmlns:sodipodi="http://sodipodi.sourceforge.net/DTD/sodipodi-0.dtd"
   xmlns:inkscape="http://www.inkscape.org/namespaces/inkscape"
   version="1.0"
   width="800.000000pt"
   height="600.000000pt"
   viewBox="0 0 800.000000 600.000000"
   preserveAspectRatio="xMidYMid meet"
   id="svg3731"
   sodipodi:docname="logo-blue.svg"
   inkscape:version="0.92.3 (2405546, 2018-03-11)">
  <defs
     id="defs3735" />
  <sodipodi:namedview
     pagecolor="#ffffff"
     bordercolor="#666666"
     borderopacity="1"
     objecttolerance="10"
     gridtolerance="10"
     guidetolerance="10"
     inkscape:pageopacity="0"
     inkscape:pageshadow="2"
     inkscape:window-width="1920"
     inkscape:window-height="1051"
     id="namedview3733"
     showgrid="false"
     inkscape:zoom="1.0725"
     inkscape:cx="379.95338"
     inkscape:cy="392.07459"
     inkscape:window-x="-9"
     inkscape:window-y="-9"
     inkscape:window-maximized="1"
     inkscape:current-layer="svg3731" />
  <metadata
     id="metadata3725">
Created by potrace 1.15, written by Peter Selinger 2001-2017
<rdf:RDF>
  <cc:Work
     rdf:about="">
    <dc:format>image/svg+xml</dc:format>
    <dc:type
       rdf:resource="http://purl.org/dc/dcmitype/StillImage" />
    <dc:title></dc:title>
  </cc:Work>
</rdf:RDF>
</metadata>
  <g
     transform="translate(0.000000,600.000000) scale(0.100000,-0.100000)"
     fill="#000000"
     stroke="none"
     id="g3729">
    <path
       d="M3163 4921 c-31 -14 -75 -73 -90 -123 -7 -24 -16 -123 -19 -220 -6 -144 -10 -180 -23 -192 -12 -10 -64 -15 -197 -19 -215 -7 -271 -22 -328 -88 -56 -66 -67 -172 -86 -804 -6 -203 -15 -493 -20 -643 -6 -150 -10 -342 -10 -427 0 -148 -21 -384 -40 -455 -27 -98 4 -294 50 -317 19 -10 143 -13 520 -13 272 0 612 -4 755 -10 143 -5 564 -11 935 -12 632 -3 678 -2 715 15 77 35 110 81 120 168 3 30 13 106 20 169 8 63 20 153 25 200 6 47 15 263 20 480 8 370 21 789 36 1185 4 111 12 184 21 210 51 137 51 136 41 178 -11 52 -40 83 -98 111 -40 18 -70 21 -263 26 -272 6 -264 1 -233 162 8 40 24 97 35 126 49 124 47 193 -8 254 -34 38 -109 50 -158 25 -94 -49 -179 -232 -198 -427 -8 -78 -21 -116 -43 -125 -10 -4 -114 -6 -232 -5 -238 1 -250 5 -250 64 0 17 7 90 17 162 14 111 14 138 3 178 -28 100 -115 144 -203 101 -71 -34 -104 -117 -132 -328 -8 -65 -20 -127 -25 -138 -16 -29 -49 -32 -227 -26 -228 8 -213 -7 -213 212 0 206 -9 259 -54 311 -29 33 -38 37 -87 40 -29 2 -64 0 -76 -5z m-129 -903 c10 -16 15 -67 18 -174 4 -135 8 -157 29 -200 43 -87 132 -119 206 -74 68 41 93 122 93 312 0 164 -6 158 180 157 147 0 224 -9 243 -28 8 -7 12 -48 13 -109 2 -128 16 -178 65 -224 36 -35 45 -38 96 -38 52 0 59 3 94 40 45 47 58 86 66 203 4 65 11 95 25 113 l19 24 223 0 c278 0 261 11 269 -168 5 -98 11 -133 28 -168 61 -126 205 -127 268 -1 19 39 24 68 29 172 6 152 9 155 118 155 58 0 74 -4 89 -20 20 -22 20 -18 -5 -815 -5 -165 -12 -421 -15 -570 -5 -265 -18 -476 -36 -585 -6 -40 -16 -61 -36 -79 l-27 -24 -656 7 c-360 4 -779 11 -930 16 -151 6 -388 10 -526 10 -314 0 -294 -11 -275 158 7 64 17 290 22 502 8 359 18 713 35 1194 9 249 1 236 154 236 103 0 110 -1 124 -22z"
       id="path3727" />
  </g>
  <path
     style="fill:#2b82c1;stroke-width:0.93240094;stroke:none;fill-opacity:1"
     d="m 568.76457,586.07215 c -37.17949,-0.34852 -76.41026,-0.94545 -87.17949,-1.32651 -10.76923,-0.38106 -51.04895,-0.97788 -89.51049,-1.32626 -52.11554,-0.47207 -70.44707,-0.922 -71.95955,-1.76619 -2.53166,-1.41303 -5.36448,-8.84311 -6.72398,-17.63599 -1.40313,-9.07507 -1.30381,-15.56284 0.36329,-23.73099 3.08136,-15.09749 4.23425,-31.54084 5.58005,-79.58691 2.39714,-85.57958 5.09841,-167.22106 6.09295,-184.14918 2.01496,-34.29688 3.98675,-42.57641 11.76638,-49.40702 7.29215,-6.40259 13.71736,-7.72365 45.16786,-9.28677 10.04246,-0.49912 19.31911,-1.31053 20.61478,-1.80314 3.03331,-1.15327 3.31815,-2.69588 4.46919,-24.20441 1.61901,-30.25301 2.30101,-33.66235 8.33162,-41.64984 4.52515,-5.99351 8.44301,-7.49249 16.9902,-6.50048 6.27808,0.72865 9.15043,2.634 12.37852,8.21122 3.85093,6.65329 4.49053,11.20876 5.0932,36.2755 l 0.57675,23.98937 2.44735,2.44611 c 1.97771,1.97671 3.76694,2.59891 9.32401,3.24241 9.9889,1.15669 40.08763,1.06762 43.51966,-0.1288 3.68238,-1.28368 4.21062,-2.92428 7.18107,-22.30303 3.60884,-23.54347 6.57846,-32.89882 12.23997,-38.56034 4.08084,-4.08083 7.77016,-5.63008 13.4914,-5.6654 6.56046,-0.0405 11.73,3.09672 15.38786,9.33838 3.98171,6.79427 3.97736,16.81716 -0.021,48.4403 -0.68315,5.40301 0.40489,7.98929 4.01691,9.54831 2.69475,1.1631 8.40382,1.52629 28.54331,1.81582 13.84616,0.19905 27.06294,0.0198 29.37063,-0.39835 5.55838,-1.00716 6.75945,-3.60282 9.18821,-19.85672 2.22109,-14.86414 5.44722,-25.71915 10.60987,-35.69927 4.01399,-7.75958 10.57589,-15.78073 14.62113,-17.87261 9.12799,-4.72027 19.67067,-1.17965 24.51968,8.23462 3.0925,6.00401 2.60305,12.85152 -1.88938,26.43301 -4.06453,12.2879 -6.75163,24.02178 -7.00595,30.5932 -0.29893,7.72387 4.89637,9.71715 25.48092,9.77626 5.89744,0.0169 16.95822,0.4126 24.57952,0.87927 12.00783,0.73525 14.51884,1.17232 18.81735,3.27538 8.01831,3.923 12.5258,10.53511 12.54198,18.39805 0.003,1.38934 -1.4673,6.6341 -3.26703,11.65501 -1.93222,5.39055 -3.63897,12.37448 -4.16779,17.05435 -1.24046,10.97779 -3.85929,86.20591 -6.10222,175.29138 -1.10757,43.99092 -2.32414,62.69176 -5.98504,92.00055 -3.93697,31.51902 -4.59048,33.91217 -10.73339,39.30572 -9.28712,8.15419 -5.72385,7.99481 -148.7603,6.65399 z m 112.52572,-44.02087 c 4.19869,-4.43594 4.85733,-6.18113 6.32444,-16.75783 2.01372,-14.51727 3.18725,-38.06254 4.68335,-93.96478 0.74798,-27.94872 2.05207,-73.96937 2.89799,-102.26812 0.84592,-28.29874 1.2461,-53.39892 0.88932,-55.77816 -1.06002,-7.0687 -2.57682,-7.92108 -14.0954,-7.92108 -5.41833,0 -10.62949,0.41636 -11.58035,0.92524 -2.63096,1.40805 -3.57531,5.70389 -4.61433,20.99078 -1.07677,15.8423 -2.46693,20.95708 -7.19825,26.48456 -7.52136,8.78703 -17.38547,9.63246 -25.61719,2.1956 -6.833,-6.1732 -8.45462,-11.70773 -9.68463,-33.05327 -0.79374,-13.77454 -2.04235,-16.64205 -7.91062,-18.16718 -2.70045,-0.70183 -13.88851,-1.11721 -31.39249,-1.1655 l -27.19668,-0.075 -2.01726,3.26399 c -1.14729,1.85636 -2.36475,5.97798 -2.82303,9.55711 -0.44318,3.46122 -1.24528,9.80824 -1.78244,14.10449 -1.16429,9.31194 -3.67231,14.76332 -9.0895,19.75671 -3.90991,3.60402 -4.10219,3.66735 -11.13434,3.66735 h -7.15573 l -4.89342,-4.8951 c -6.30848,-6.31065 -7.73778,-11.08892 -8.71687,-29.14121 -0.53066,-9.78439 -1.11594,-14.00732 -2.07413,-14.96552 -2.32951,-2.32951 -11.90574,-3.40384 -31.58425,-3.54332 -21.10732,-0.14962 -22.54276,0.16133 -24.08993,5.21865 -0.51108,1.67061 -1.13965,10.17033 -1.39682,18.88828 -0.25716,8.71794 -0.96705,18.1585 -1.57752,20.97902 -1.56231,7.21818 -5.18855,13.46821 -9.57987,16.51139 -3.19389,2.21337 -4.68655,2.60283 -9.97591,2.60283 -5.26488,0 -6.78053,-0.39143 -9.86993,-2.54897 -8.55267,-5.97294 -10.48001,-11.78435 -11.63921,-35.09511 -1.13565,-22.83743 -1.62805,-24.89829 -6.25587,-26.18356 -4.53378,-1.25915 -22.05311,-1.24088 -26.62183,0.0278 -4.37358,1.21447 -5.82009,4.15302 -6.62927,13.46731 -0.72985,8.40124 -2.94234,76.64984 -4.7148,145.43746 -1.57343,61.0638 -2.79771,90.22876 -4.31361,102.75992 -1.21817,10.06999 -0.74879,12.71523 2.65167,14.9439 2.26304,1.4832 6.55867,1.70159 44.04115,2.23906 22.84343,0.32755 62.30275,1.09288 87.68736,1.70072 25.38462,0.60783 72.79721,1.42561 105.36131,1.81728 32.5641,0.39166 63.84543,0.78018 69.51406,0.86338 l 10.30661,0.15125 z"
     id="path3737"
     inkscape:connector-curvature="0"
     transform="scale(0.75000001)" />
</svg>
